
<svg width="307px" height="111px" viewBox="0 0 307 111" version="1.1" xmlns="http://www.w3.org/2000/svg" xmlns:xlink="http://www.w3.org/1999/xlink">
    <!-- Generator: Sketch 51.2 (57519) - http://www.bohemiancoding.com/sketch -->
    <desc>Created with Sketch.</desc>
    <defs></defs>
    <g id="Page-1" stroke="none" stroke-width="1" fill="none" fill-rule="evenodd">
        <g id="Group" transform="translate(0.000000, -14.000000)" fill="#FFFFFF">
            <g id="molecular" transform="translate(52.500000, 69.500000) rotate(-90.000000) translate(-52.500000, -69.500000) translate(-3.000000, 17.000000)" fill-rule="nonzero">
                <path d="M52.1356454,38.6719749 L52.1356454,19.9681507 C56.6635297,18.8437815 60.0196712,14.8650892 60.0196712,10.1428732 C60.0196712,4.54996075 55.3118134,0 49.5248103,0 C43.7381554,0 39.0302975,4.54996075 39.0302975,10.1428732 C39.0302975,14.8650892 42.386439,18.8434451 46.9139752,19.9678143 L46.9139752,38.6716384 C41.4225187,39.4703376 36.7599153,42.7475608 34.1884167,47.2833913 L22.7042234,38.6551531 C22.9851492,37.8911069 23.1393625,37.0691937 23.1393625,36.2133004 C23.1393625,32.1794325 19.7435363,28.8974992 15.5696813,28.8974992 C11.3958262,28.8974992 8,32.1794325 8,36.2133004 C8,40.2471683 11.3958262,43.5291017 15.5696813,43.5291017 C16.9523795,43.5291017 18.2483981,43.1670966 19.3651393,42.5389705 L32.3462115,52.2919143 C32.1547502,53.2914657 32.0496206,54.3196142 32.0496206,55.3719861 C32.0496206,59.1198834 33.3209233,62.5851744 35.4663335,65.3900415 L20.7889147,79.5751935 C19.7692966,80.5606146 19.7692966,82.1583492 20.7889147,83.1434339 C21.2988978,83.6359762 21.9672716,83.8825838 22.6352973,83.8825838 C23.303323,83.8825838 23.9716968,83.6363127 24.4816799,83.1434339 L39.1590987,68.9582819 C41.3971065,70.5573623 44.0417085,71.6538073 46.9139752,72.0716609 L46.9139752,90.8172031 C44.0225623,91.8473702 41.955129,94.5368397 41.955129,97.6841987 C41.955129,101.718067 45.3509552,105 49.5248103,105 C53.6986654,105 57.0944916,101.718067 57.0944916,97.6841987 C57.0944916,94.5365033 55.0270583,91.8470338 52.1356454,90.8172031 L52.1356454,72.0719973 C60.5376609,70.8503981 67,63.8272962 67,55.3723225 C67,46.916676 60.5373128,39.8935741 52.1356454,38.6719749 Z M15.5696813,38.4828978 C14.2747071,38.4828978 13.2216702,37.4648424 13.2216702,36.2136369 C13.2216702,34.9624313 14.2747071,33.9443759 15.5696813,33.9443759 C16.8646555,33.9443759 17.9176923,34.9624313 17.9176923,36.2136369 C17.9176923,37.4648424 16.8643074,38.4828978 15.5696813,38.4828978 Z M44.2516196,10.1428732 C44.2516196,7.33262308 46.6170362,5.04654032 49.5244622,5.04654032 C52.4318882,5.04654032 54.7976529,7.33262308 54.7976529,10.1428732 C54.7976529,12.9531232 52.4318882,15.239206 49.5244622,15.239206 C46.6170362,15.239206 44.2516196,12.9531232 44.2516196,10.1428732 Z M49.5248103,99.9534597 C48.2298361,99.9534597 47.1767993,98.9354043 47.1767993,97.6841987 C47.1767993,96.5890995 47.9833733,95.6726478 49.0527713,95.4610295 C49.2059403,95.4882808 49.3632866,95.5044297 49.5248103,95.5044297 C49.686334,95.5044297 49.8436803,95.4882808 49.9968493,95.4610295 C51.0662474,95.6726478 51.8728214,96.5890995 51.8728214,97.6841987 C51.8728214,98.9354043 50.8194364,99.9534597 49.5248103,99.9534597 Z M49.5248103,67.2141976 C42.7683171,67.2141976 37.271639,61.9015364 37.271639,55.3716497 C37.271639,54.2193563 37.4460427,53.1060895 37.7649127,52.0520354 C37.7819702,51.9998879 37.7979833,51.9480767 37.8112115,51.8952563 C39.3516043,47.0566334 44.0194293,43.5291017 49.5248103,43.5291017 C56.2813035,43.5291017 61.7783298,48.8417629 61.7783298,55.3716497 C61.7783298,61.9018728 56.2813035,67.2141976 49.5248103,67.2141976 Z" id="Shape"></path>
                <path d="M100.658014,30 C94.9553081,30 90.3160279,34.5395014 90.3160279,40.1195569 C90.3160279,40.3796955 90.3294065,40.6364774 90.3493028,40.891581 L71.7434703,47.09899 C70.3984084,47.5474352 69.6797384,48.978365 70.1383836,50.2941625 C70.5030357,51.3410943 71.5026558,52 72.5732854,52 C72.8487469,52 73.128668,51.9563639 73.4037865,51.864728 L92.0089329,45.6576546 C93.8586075,48.4141161 97.0437389,50.2394495 100.658357,50.2394495 C106.36072,50.2394495 111,45.6999481 111,40.1198926 C110.999657,34.5398371 106.360377,30 100.658014,30 Z M100.658014,45.2045101 C97.7925964,45.2045101 95.4616359,42.9236825 95.4616359,40.1198926 C95.4616359,37.3161027 97.7929394,35.0352751 100.658014,35.0352751 C103.523088,35.0352751 105.854049,37.3161027 105.854049,40.1198926 C105.854049,42.9233469 103.523088,45.2045101 100.658014,45.2045101 Z" id="Shape"></path>
                <path d="M10.5001741,82 C4.71024131,82 0,86.7105115 0,92.5 C0,98.2898368 4.71024131,103 10.5001741,103 C16.2897587,103 21,98.2898368 21,92.5 C21.0003483,86.7105115 16.2897587,82 10.5001741,82 Z M10.5001741,97.7761211 C7.59092794,97.7761211 5.22431379,95.4095462 5.22431379,92.5003483 C5.22431379,89.5911503 7.59127623,87.2245754 10.5001741,87.2245754 C13.4090721,87.2245754 15.7756862,89.5911503 15.7756862,92.5003483 C15.7760345,95.409198 13.4094203,97.7761211 10.5001741,97.7761211 Z" id="Shape"></path>
            </g>
            <text id="Services" font-family="Metropolis-Medium, Metropolis" font-size="48" font-weight="400">
                <tspan x="111" y="100">Services</tspan>
            </text>
            <text id="IT" font-family="Metropolis-Medium, Metropolis" font-size="64" font-weight="400">
                <tspan x="253" y="64">IT</tspan>
            </text>
            <text id="Hosford" font-family="Metropolis-Medium, Metropolis" font-size="48" font-weight="400">
                <tspan x="64" y="55">Hosford</tspan>
            </text>
        </g>
    </g>
</svg>